<svg width="1359" height="614" viewBox="0 0 1359 614" fill="none" xmlns="http://www.w3.org/2000/svg">
<path d="M814.12 253.972C814.237 256.89 814.435 259.809 814.657 262.739L814.75 263.661C814.996 266.591 815.276 269.521 815.603 272.439L835.343 476.173C836.126 484.905 836.862 493.648 837.481 502.392C838.614 518.384 840.423 534.645 846.123 549.739C847.992 554.688 850.328 559.369 852.945 563.957C865.746 585.447 886.41 601.825 910.296 609.319C920.213 612.436 930.609 614 941.004 614C973.838 614 1001.32 595.194 1025.27 574.614C1053.69 550.182 1082.28 525.948 1110.85 501.691C1146.63 471.317 1180.56 442.461 1216.63 411.585C1235.54 395.394 1255.4 379.11 1275.01 363.771C1292.61 350.008 1313.24 334.541 1327.86 317.417C1346.77 295.284 1358.39 266.742 1358.98 235.505C1360.32 163.807 1302.49 104.005 1230.74 103.013C1158.04 102.009 1098.8 160.597 1098.8 233.018C1098.8 254.918 1104.19 276.957 1115.24 296.253C1120.51 305.463 1131.66 318.444 1139.83 325.226C1147.97 331.996 1156.09 338.697 1161.74 347.849C1170.12 361.413 1174.58 377.207 1174.58 393.141C1174.58 440.838 1135.89 479.512 1088.15 479.512C1050.29 479.512 1018.02 455.955 998.658 424.659C976.547 388.915 976.267 350.3 976.267 309.654C976.267 286.237 976.267 262.832 976.267 239.415C976.267 194.602 939.918 158.274 895.076 158.274C863.726 158.274 835.448 177.057 822.156 205.248C815.054 220.306 813.465 236.976 814.143 253.972H814.12Z" fill="#DDDDD4" fill-opacity="0.1"/>
<path d="M0 145.825C0 64.9618 65.801 -0.534109 146.757 0.00328348C192.767 0.304977 236.628 23.1677 263.667 60.3326C281.818 85.2884 292.798 117.296 288.001 148.305C285.579 163.946 279 178.653 268.888 190.844C266.079 194.238 240.577 223.134 239.596 222.069L239.842 222.314C221.38 245.243 222.774 278.882 244.064 300.179C265.354 321.477 298.98 322.872 321.9 304.403L322.146 304.648L367.92 258.857C394.355 232.411 430.215 217.553 467.602 217.553H692.27C731.891 217.553 764 249.683 764 289.309V494.659C764 495.262 763.99 495.866 763.981 496.46C763.981 497.054 764 497.648 764 498.251C764 562.729 711.298 614.893 646.647 613.988C584.332 613.121 533.469 562.248 532.602 499.901C532.197 471.212 542.63 440.071 565.427 421.008C592.702 398.211 632.01 407.243 659.492 384.823C679.142 368.796 691.083 344.5 691.46 319.101C691.837 293.966 681.027 269.52 662.179 252.889C620.739 216.318 546.202 221.55 510.285 263.571C507.43 266.918 504.64 270.463 502.368 274.234L404.025 427.739C376.864 470.137 329.986 495.781 279.65 495.781H71.7388C32.1185 495.781 0.00921631 463.65 0.00921631 424.025V217.553C0.00921631 190.844 0.00921631 171.912 0.00921631 145.835L0 145.825Z" fill="#DDDDD4" fill-opacity="0.1"/>
</svg>