<svg width="360" height="688" viewBox="0 0 360 688" fill="none" xmlns="http://www.w3.org/2000/svg">
<path d="M291.874 242.745C290.573 242.693 289.272 242.605 287.966 242.506L287.555 242.464C286.249 242.355 284.943 242.23 283.642 242.084L192.822 233.29C188.93 232.941 185.032 232.613 181.135 232.338C174.006 231.833 166.757 231.027 160.029 228.487C157.822 227.655 155.736 226.614 153.691 225.448C144.111 219.745 136.81 210.54 133.469 199.898C132.08 195.48 131.383 190.849 131.383 186.218C131.383 171.59 139.766 159.346 148.94 148.679C159.831 136.018 170.634 123.279 181.447 110.551C194.987 94.6125 207.85 79.4961 221.614 63.4272C228.832 55.0025 236.091 46.1561 242.928 37.4191C249.063 29.5772 255.958 20.3876 263.592 13.8726C273.458 5.44785 286.181 0.270399 300.106 0.0102159C332.067 -0.588205 358.725 25.1751 359.168 57.1412C359.615 89.5287 333.498 115.922 301.214 115.922C291.452 115.922 281.628 113.518 273.026 108.595C268.921 106.248 263.134 101.279 260.111 97.6413C257.093 94.0143 254.106 90.3979 250.026 87.8793C243.98 84.1483 236.939 82.1604 229.836 82.1604C208.574 82.1604 191.334 99.395 191.334 120.662C191.334 137.533 201.835 151.905 215.786 160.533C231.72 170.383 248.933 170.508 267.053 170.508C277.491 170.508 287.924 170.508 298.363 170.508C318.34 170.508 334.533 186.702 334.533 206.679C334.533 220.645 326.161 233.243 313.594 239.165C306.881 242.329 299.45 243.037 291.874 242.735L291.874 242.745Z" fill="black" fill-opacity="0.2"/>
<path d="M80.4868 688C35.855 688 -0.294792 651.668 0.00181635 606.969C0.168333 581.564 12.7872 557.347 33.3 542.417C47.0741 532.395 64.7405 526.333 81.8553 528.981C90.4882 530.319 98.6059 533.951 105.334 539.535C107.208 541.085 123.157 555.166 122.569 555.708L122.704 555.572C135.359 565.766 153.926 564.996 165.681 553.241C177.436 541.486 178.206 522.919 168.012 510.264L168.148 510.128L142.873 484.854C128.277 470.258 120.076 450.458 120.076 429.815L120.076 305.765C120.076 283.889 137.81 266.16 159.681 266.16L273.022 266.16C273.355 266.16 273.688 266.166 274.016 266.171C274.344 266.171 274.672 266.16 275.005 266.16C310.592 266.16 339.384 295.259 338.885 330.956C338.406 365.363 310.327 393.447 275.915 393.926C260.081 394.149 242.893 388.389 232.371 375.801C219.789 360.742 224.774 339.038 212.399 323.864C203.553 313.014 190.143 306.421 176.125 306.213C162.252 306.005 148.759 311.973 139.58 322.38C119.395 345.261 122.283 386.417 145.475 406.248C147.322 407.824 149.279 409.365 151.361 410.619L236.087 464.919C259.487 479.916 273.641 505.799 273.641 533.592L273.641 648.39C273.641 670.266 255.907 687.995 234.036 687.995L120.076 687.995C105.273 687.995 94.8853 687.995 80.492 687.995L80.4868 688Z" fill="black" fill-opacity="0.2"/>
</svg>
