<svg width="611" height="491" viewBox="0 0 611 491" fill="none" xmlns="http://www.w3.org/2000/svg">
<path d="M610.686 116.519C610.686 51.9064 558.089 -0.426768 493.379 0.00262359C456.602 0.243686 421.543 18.5117 399.93 48.2075C385.421 68.1479 376.645 93.723 380.479 118.5C382.415 130.997 387.674 142.749 395.757 152.49C398.002 155.202 418.387 178.291 419.17 177.439L418.974 177.635C433.731 195.956 432.617 222.835 415.599 239.852C398.582 256.869 371.703 257.984 353.383 243.227L353.186 243.423L316.598 206.834C295.467 185.703 266.803 173.831 236.919 173.831H57.3354C25.6659 173.831 0 199.504 0 231.166V395.247C0 395.729 0.00791574 396.211 0.0154489 396.686C0.0154489 397.16 0 397.635 0 398.117C0 449.636 42.126 491.318 93.8037 490.594C143.613 489.901 184.27 449.252 184.963 399.435C185.287 376.512 176.947 351.629 158.725 336.397C136.923 318.182 105.503 325.399 83.536 307.485C67.8293 294.679 58.2848 275.266 57.9835 254.971C57.6822 234.888 66.3223 215.354 81.3886 202.066C114.512 172.844 174.092 177.025 202.801 210.601C205.084 213.275 207.314 216.107 209.129 219.121L287.738 341.776C309.448 375.653 346.919 396.143 387.154 396.143H553.343C585.013 396.143 610.679 370.47 610.679 338.808V173.831C610.679 152.49 610.679 137.363 610.679 116.526L610.686 116.519Z" fill="#512FEB"/>
</svg>
