<svg width="408" height="628" viewBox="0 0 408 628" fill="none" xmlns="http://www.w3.org/2000/svg">
<g clip-path="url(#clip0_151_2017)">
<path d="M51.3191 578.6C79.266 578.6 101.921 555.95 101.921 528.01C101.921 500.071 79.266 477.421 51.3191 477.421C23.3722 477.421 0.716797 500.071 0.716797 528.01C0.716797 555.95 23.3722 578.6 51.3191 578.6Z" stroke="black" stroke-opacity="0.02" stroke-miterlimit="10"/>
<path d="M69.3622 591.394C96.7947 591.394 119.033 569.162 119.033 541.736C119.033 514.311 96.7947 492.078 69.3622 492.078C41.9298 492.078 19.6914 514.311 19.6914 541.736C19.6914 569.162 41.9298 591.394 69.3622 591.394Z" stroke="black" stroke-opacity="0.1" stroke-miterlimit="10"/>
<path d="M88.5069 602.426C115.425 602.426 137.246 580.611 137.246 553.699C137.246 526.788 115.425 504.973 88.5069 504.973C61.5889 504.973 39.7676 526.788 39.7676 553.699C39.7676 580.611 61.5889 602.426 88.5069 602.426Z" stroke="black" stroke-opacity="0.1" stroke-miterlimit="10"/>
<path d="M108.857 611.767C135.26 611.767 156.664 590.368 156.664 563.971C156.664 537.575 135.26 516.176 108.857 516.176C82.4531 516.176 61.0488 537.575 61.0488 563.971C61.0488 590.368 82.4531 611.767 108.857 611.767Z" stroke="url(#paint0_linear_151_2017)" stroke-opacity="0.2" stroke-miterlimit="10"/>
<path d="M130.154 619.189C156.043 619.189 177.03 598.207 177.03 572.324C177.03 546.442 156.043 525.46 130.154 525.46C104.265 525.46 83.2773 546.442 83.2773 572.324C83.2773 598.207 104.265 619.189 130.154 619.189Z" stroke="url(#paint1_linear_151_2017)" stroke-opacity="0.2" stroke-miterlimit="10"/>
<path d="M152.123 624.418C177.497 624.418 198.067 603.853 198.067 578.485C198.067 553.117 177.497 532.552 152.123 532.552C126.748 532.552 106.178 553.117 106.178 578.485C106.178 603.853 126.748 624.418 152.123 624.418Z" stroke="url(#paint2_linear_151_2017)" stroke-opacity="0.3" stroke-miterlimit="10"/>
<path d="M174.507 627.198C199.368 627.198 219.521 607.05 219.521 582.196C219.521 557.342 199.368 537.194 174.507 537.194C149.647 537.194 129.494 557.342 129.494 582.196C129.494 607.05 149.647 627.198 174.507 627.198Z" stroke="url(#paint3_linear_151_2017)" stroke-opacity="0.2" stroke-miterlimit="10"/>
<path d="M197.064 627.284C221.41 627.284 241.146 607.553 241.146 583.213C241.146 558.874 221.41 539.143 197.064 539.143C172.718 539.143 152.982 558.874 152.982 583.213C152.982 607.553 172.718 627.284 197.064 627.284Z" stroke="url(#paint4_linear_151_2017)" stroke-opacity="0.5" stroke-miterlimit="10"/>
<path d="M219.535 624.433C243.366 624.433 262.685 605.119 262.685 581.294C262.685 557.468 243.366 538.154 219.535 538.154C195.704 538.154 176.385 557.468 176.385 581.294C176.385 605.119 195.704 624.433 219.535 624.433Z" stroke="url(#paint5_linear_151_2017)" stroke-opacity="0.5" stroke-miterlimit="10"/>
<path d="M241.662 618.372C264.979 618.372 283.881 599.475 283.881 576.164C283.881 552.853 264.979 533.956 241.662 533.956C218.345 533.956 199.443 552.853 199.443 576.164C199.443 599.475 218.345 618.372 241.662 618.372Z" stroke="url(#paint6_linear_151_2017)" stroke-opacity="0.5" stroke-miterlimit="10"/>
<path d="M262.756 609.132C285.558 609.132 304.043 590.651 304.043 567.855C304.043 545.058 285.558 526.578 262.756 526.578C239.954 526.578 221.469 545.058 221.469 567.855C221.469 590.651 239.954 609.132 262.756 609.132Z" stroke="url(#paint7_linear_151_2017)" stroke-miterlimit="10"/>
<path d="M282.692 597.569C304.98 597.569 323.047 579.506 323.047 557.223C323.047 534.941 304.98 516.878 282.692 516.878C260.404 516.878 242.336 534.941 242.336 557.223C242.336 579.506 260.404 597.569 282.692 597.569Z" stroke="url(#paint8_linear_151_2017)" stroke-miterlimit="10"/>
<path d="M301.823 583.858C323.596 583.858 341.247 566.211 341.247 544.443C341.247 522.676 323.596 505.029 301.823 505.029C280.049 505.029 262.398 522.676 262.398 544.443C262.398 566.211 280.049 583.858 301.823 583.858Z" stroke="url(#paint9_linear_151_2017)" stroke-miterlimit="10"/>
<path d="M319.678 568.299C340.937 568.299 358.171 551.069 358.171 529.816C358.171 508.562 340.937 491.333 319.678 491.333C298.419 491.333 281.186 508.562 281.186 529.816C281.186 551.069 298.419 568.299 319.678 568.299Z" stroke="url(#paint10_linear_151_2017)" stroke-miterlimit="10"/>
<path d="M335.772 551.192C356.517 551.192 373.333 534.38 373.333 513.64C373.333 492.901 356.517 476.089 335.772 476.089C315.028 476.089 298.211 492.901 298.211 513.64C298.211 534.38 315.028 551.192 335.772 551.192Z" stroke="url(#paint11_linear_151_2017)" stroke-miterlimit="10"/>
<path d="M349.688 532.782C369.918 532.782 386.318 516.386 386.318 496.161C386.318 475.937 369.918 459.541 349.688 459.541C329.458 459.541 313.059 475.937 313.059 496.161C313.059 516.386 329.458 532.782 349.688 532.782Z" stroke="url(#paint12_linear_151_2017)" stroke-miterlimit="10"/>
<path d="M361.081 511.935C380.797 511.935 396.779 495.956 396.779 476.246C396.779 456.535 380.797 440.557 361.081 440.557C341.365 440.557 325.383 456.535 325.383 476.246C325.383 495.956 341.365 511.935 361.081 511.935Z" stroke="url(#paint13_linear_151_2017)" stroke-miterlimit="10"/>
<path d="M369.091 489.27C388.292 489.27 403.858 473.708 403.858 454.512C403.858 435.316 388.292 419.754 369.091 419.754C349.89 419.754 334.324 435.316 334.324 454.512C334.324 473.708 349.89 489.27 369.091 489.27Z" stroke="url(#paint14_linear_151_2017)" stroke-miterlimit="10"/>
<path d="M373.448 465.687C392.135 465.687 407.284 450.543 407.284 431.861C407.284 413.179 392.135 398.034 373.448 398.034C354.762 398.034 339.613 413.179 339.613 431.861C339.613 450.543 354.762 465.687 373.448 465.687Z" stroke="url(#paint15_linear_151_2017)" stroke-miterlimit="10"/>
<path d="M373.921 442.104C392.093 442.104 406.825 427.376 406.825 409.209C406.825 391.041 392.093 376.313 373.921 376.313C355.749 376.313 341.018 391.041 341.018 409.209C341.018 427.376 355.749 442.104 373.921 442.104Z" stroke="url(#paint16_linear_151_2017)" stroke-miterlimit="10"/>
<path d="M370.238 419.41C387.896 419.41 402.21 405.1 402.21 387.446C402.21 369.793 387.896 355.482 370.238 355.482C352.58 355.482 338.266 369.793 338.266 387.446C338.266 405.1 352.58 419.41 370.238 419.41Z" stroke="url(#paint17_linear_151_2017)" stroke-miterlimit="10"/>
<path d="M362.14 398.535C379.284 398.535 393.181 384.641 393.181 367.502C393.181 350.364 379.284 336.47 362.14 336.47C344.997 336.47 331.1 350.364 331.1 367.502C331.1 384.641 344.997 398.535 362.14 398.535Z" stroke="url(#paint18_linear_151_2017)" stroke-miterlimit="10"/>
<path d="M349.357 380.383C365.986 380.383 379.466 366.906 379.466 350.281C379.466 333.657 365.986 320.18 349.357 320.18C332.728 320.18 319.248 333.657 319.248 350.281C319.248 366.906 332.728 380.383 349.357 380.383Z" stroke="url(#paint19_linear_151_2017)" stroke-miterlimit="10"/>
<path d="M331.644 365.855C347.759 365.855 360.822 352.795 360.822 336.685C360.822 320.575 347.759 307.515 331.644 307.515C315.53 307.515 302.467 320.575 302.467 336.685C302.467 352.795 315.53 365.855 331.644 365.855Z" stroke="url(#paint20_linear_151_2017)" stroke-miterlimit="10"/>
<path d="M308.731 355.868C324.33 355.868 336.977 343.226 336.977 327.63C336.977 312.034 324.33 299.391 308.731 299.391C293.131 299.391 280.484 312.034 280.484 327.63C280.484 343.226 293.131 355.868 308.731 355.868Z" stroke="url(#paint21_linear_151_2017)" stroke-miterlimit="10"/>
<path d="M285.629 351.084C300.715 351.084 312.944 338.858 312.944 323.776C312.944 308.695 300.715 296.469 285.629 296.469C270.544 296.469 258.314 308.695 258.314 323.776C258.314 338.858 270.544 351.084 285.629 351.084Z" stroke="url(#paint22_linear_151_2017)" stroke-miterlimit="10"/>
<path d="M262.858 346.456C277.429 346.456 289.241 334.647 289.241 320.08C289.241 305.512 277.429 293.703 262.858 293.703C248.287 293.703 236.475 305.512 236.475 320.08C236.475 334.647 248.287 346.456 262.858 346.456Z" stroke="url(#paint23_linear_151_2017)" stroke-miterlimit="10"/>
<path d="M242.78 336.756C256.836 336.756 268.231 325.364 268.231 311.311C268.231 297.258 256.836 285.866 242.78 285.866C228.723 285.866 217.328 297.258 217.328 311.311C217.328 325.364 228.723 336.756 242.78 336.756Z" stroke="url(#paint24_linear_151_2017)" stroke-miterlimit="10"/>
<path d="M229.079 318.447C242.621 318.447 253.599 307.471 253.599 293.933C253.599 280.394 242.621 269.419 229.079 269.419C215.537 269.419 204.559 280.394 204.559 293.933C204.559 307.471 215.537 318.447 229.079 318.447Z" stroke="url(#paint25_linear_151_2017)" stroke-miterlimit="10"/>
<path d="M224.565 295.322C237.593 295.322 248.154 284.764 248.154 271.74C248.154 258.715 237.593 248.157 224.565 248.157C211.538 248.157 200.977 258.715 200.977 271.74C200.977 284.764 211.538 295.322 224.565 295.322Z" stroke="url(#paint26_linear_151_2017)" stroke-miterlimit="10"/>
<path d="M227.446 271.768C239.959 271.768 250.103 261.627 250.103 249.117C250.103 236.607 239.959 226.466 227.446 226.466C214.933 226.466 204.789 236.607 204.789 249.117C204.789 261.627 214.933 271.768 227.446 271.768Z" stroke="url(#paint27_linear_151_2017)" stroke-miterlimit="10"/>
<path d="M234.553 249.275C246.544 249.275 256.264 239.557 256.264 227.569C256.264 215.581 246.544 205.863 234.553 205.863C222.562 205.863 212.842 215.581 212.842 227.569C212.842 239.557 222.562 249.275 234.553 249.275Z" stroke="url(#paint28_linear_151_2017)" stroke-miterlimit="10"/>
<path d="M242.622 227.053C254.098 227.053 263.401 217.752 263.401 206.278C263.401 194.805 254.098 185.504 242.622 185.504C231.145 185.504 221.842 194.805 221.842 206.278C221.842 217.752 231.145 227.053 242.622 227.053Z" stroke="url(#paint29_linear_151_2017)" stroke-miterlimit="10"/>
<path d="M248.969 204.244C259.931 204.244 268.818 195.36 268.818 184.401C268.818 173.442 259.931 164.558 248.969 164.558C238.007 164.558 229.121 173.442 229.121 184.401C229.121 195.36 238.007 204.244 248.969 204.244Z" stroke="url(#paint30_linear_151_2017)" stroke-miterlimit="10"/>
<path d="M252.61 180.877C263.058 180.877 271.527 172.409 271.527 161.965C271.527 151.52 263.058 143.053 252.61 143.053C242.163 143.053 233.693 151.52 233.693 161.965C233.693 172.409 242.163 180.877 252.61 180.877Z" stroke="url(#paint31_linear_151_2017)" stroke-miterlimit="10"/>
<path d="M252.94 157.308C262.873 157.308 270.926 149.258 270.926 139.327C270.926 129.397 262.873 121.347 252.94 121.347C243.007 121.347 234.955 129.397 234.955 139.327C234.955 149.258 243.007 157.308 252.94 157.308Z" stroke="url(#paint32_linear_151_2017)" stroke-miterlimit="10"/>
<path d="M249.356 133.955C258.775 133.955 266.41 126.322 266.41 116.906C266.41 107.49 258.775 99.8564 249.356 99.8564C239.938 99.8564 232.303 107.49 232.303 116.906C232.303 126.322 239.938 133.955 249.356 133.955Z" stroke="url(#paint33_linear_151_2017)" stroke-miterlimit="10"/>
<path d="M241.417 111.662C250.321 111.662 257.539 104.446 257.539 95.5439C257.539 86.6421 250.321 79.4258 241.417 79.4258C232.513 79.4258 225.295 86.6421 225.295 95.5439C225.295 104.446 232.513 111.662 241.417 111.662Z" stroke="url(#paint34_linear_151_2017)" stroke-miterlimit="10"/>
<path d="M229.179 91.6754C237.569 91.6754 244.37 84.8761 244.37 76.4886C244.37 68.1011 237.569 61.3018 229.179 61.3018C220.789 61.3018 213.988 68.1011 213.988 76.4886C213.988 84.8761 220.789 91.6754 229.179 91.6754Z" stroke="url(#paint35_linear_151_2017)" stroke-miterlimit="10"/>
<path d="M212.798 75.2279C220.673 75.2279 227.058 68.8455 227.058 60.9724C227.058 53.0992 220.673 46.7168 212.798 46.7168C204.923 46.7168 198.539 53.0992 198.539 60.9724C198.539 68.8455 204.923 75.2279 212.798 75.2279Z" stroke="url(#paint36_linear_151_2017)" stroke-miterlimit="10"/>
</g>
<path d="M170.484 22.9202C161.383 21.7223 155.049 31.7263 160.024 39.4406L188.883 84.1917C193.646 91.5775 205.079 88.5394 205.547 79.7635L206.182 67.8471C206.447 62.8811 209.171 58.3741 213.444 55.8299L228.491 46.8703C235.878 42.4724 233.561 31.2225 225.038 30.1006L170.484 22.9202Z" fill="#512FEB" stroke="black"/>
<defs>
<linearGradient id="paint0_linear_151_2017" x1="60.3323" y1="563.971" x2="157.381" y2="563.971" gradientUnits="userSpaceOnUse">
<stop/>
<stop offset="0.33"/>
<stop offset="0.52"/>
<stop offset="0.73"/>
<stop offset="1"/>
</linearGradient>
<linearGradient id="paint1_linear_151_2017" x1="82.5608" y1="572.324" x2="177.746" y2="572.324" gradientUnits="userSpaceOnUse">
<stop/>
<stop offset="0.33"/>
<stop offset="0.52"/>
<stop offset="0.73"/>
<stop offset="1"/>
</linearGradient>
<linearGradient id="paint2_linear_151_2017" x1="105.461" y1="578.485" x2="198.77" y2="578.485" gradientUnits="userSpaceOnUse">
<stop/>
<stop offset="0.33"/>
<stop offset="0.52"/>
<stop offset="0.73"/>
<stop offset="1"/>
</linearGradient>
<linearGradient id="paint3_linear_151_2017" x1="128.778" y1="582.196" x2="220.237" y2="582.196" gradientUnits="userSpaceOnUse">
<stop/>
<stop offset="0.33"/>
<stop offset="0.52"/>
<stop offset="0.73"/>
<stop offset="1"/>
</linearGradient>
<linearGradient id="paint4_linear_151_2017" x1="152.266" y1="583.213" x2="241.863" y2="583.213" gradientUnits="userSpaceOnUse">
<stop/>
<stop offset="0.33"/>
<stop offset="0.52"/>
<stop offset="0.73"/>
<stop offset="1"/>
</linearGradient>
<linearGradient id="paint5_linear_151_2017" x1="175.668" y1="581.294" x2="263.402" y2="581.294" gradientUnits="userSpaceOnUse">
<stop/>
<stop offset="0.33"/>
<stop offset="0.52"/>
<stop offset="0.73"/>
<stop offset="1"/>
</linearGradient>
<linearGradient id="paint6_linear_151_2017" x1="198.727" y1="576.164" x2="284.597" y2="576.164" gradientUnits="userSpaceOnUse">
<stop/>
<stop offset="0.33"/>
<stop offset="0.52"/>
<stop offset="0.73"/>
<stop offset="1"/>
</linearGradient>
<linearGradient id="paint7_linear_151_2017" x1="220.752" y1="567.855" x2="304.76" y2="567.855" gradientUnits="userSpaceOnUse">
<stop/>
<stop offset="0.33"/>
<stop offset="0.52"/>
<stop offset="0.73"/>
<stop offset="1"/>
</linearGradient>
<linearGradient id="paint8_linear_151_2017" x1="241.619" y1="557.223" x2="323.764" y2="557.223" gradientUnits="userSpaceOnUse">
<stop/>
<stop offset="0.33"/>
<stop offset="0.52"/>
<stop offset="0.73"/>
<stop offset="1"/>
</linearGradient>
<linearGradient id="paint9_linear_151_2017" x1="261.682" y1="544.443" x2="341.963" y2="544.443" gradientUnits="userSpaceOnUse">
<stop/>
<stop offset="0.33"/>
<stop offset="0.52"/>
<stop offset="0.73"/>
<stop offset="1"/>
</linearGradient>
<linearGradient id="paint10_linear_151_2017" x1="280.469" y1="529.816" x2="358.888" y2="529.816" gradientUnits="userSpaceOnUse">
<stop/>
<stop offset="0.33"/>
<stop offset="0.52"/>
<stop offset="0.73"/>
<stop offset="1"/>
</linearGradient>
<linearGradient id="paint11_linear_151_2017" x1="297.509" y1="513.64" x2="374.05" y2="513.64" gradientUnits="userSpaceOnUse">
<stop/>
<stop offset="0.33"/>
<stop offset="0.52"/>
<stop offset="0.73"/>
<stop offset="1"/>
</linearGradient>
<linearGradient id="paint12_linear_151_2017" x1="312.342" y1="496.161" x2="387.035" y2="496.161" gradientUnits="userSpaceOnUse">
<stop/>
<stop offset="0.33"/>
<stop offset="0.52"/>
<stop offset="0.73"/>
<stop offset="1"/>
</linearGradient>
<linearGradient id="paint13_linear_151_2017" x1="324.666" y1="476.246" x2="397.481" y2="476.246" gradientUnits="userSpaceOnUse">
<stop/>
<stop offset="0.33"/>
<stop offset="0.52"/>
<stop offset="0.73"/>
<stop offset="1"/>
</linearGradient>
<linearGradient id="paint14_linear_151_2017" x1="333.608" y1="454.512" x2="404.56" y2="454.512" gradientUnits="userSpaceOnUse">
<stop/>
<stop offset="0.33"/>
<stop offset="0.52"/>
<stop offset="0.73"/>
<stop offset="1"/>
</linearGradient>
<linearGradient id="paint15_linear_151_2017" x1="338.911" y1="431.861" x2="408" y2="431.861" gradientUnits="userSpaceOnUse">
<stop/>
<stop offset="0.33"/>
<stop offset="0.52"/>
<stop offset="0.73"/>
<stop offset="1"/>
</linearGradient>
<linearGradient id="paint16_linear_151_2017" x1="340.315" y1="409.209" x2="407.541" y2="409.209" gradientUnits="userSpaceOnUse">
<stop/>
<stop offset="0.33"/>
<stop offset="0.52"/>
<stop offset="0.73"/>
<stop offset="1"/>
</linearGradient>
<linearGradient id="paint17_linear_151_2017" x1="337.549" y1="387.446" x2="402.927" y2="387.446" gradientUnits="userSpaceOnUse">
<stop/>
<stop offset="0.33"/>
<stop offset="0.52"/>
<stop offset="0.73"/>
<stop offset="1"/>
</linearGradient>
<linearGradient id="paint18_linear_151_2017" x1="330.383" y1="367.502" x2="393.883" y2="367.502" gradientUnits="userSpaceOnUse">
<stop/>
<stop offset="0.33"/>
<stop offset="0.52"/>
<stop offset="0.73"/>
<stop offset="1"/>
</linearGradient>
<linearGradient id="paint19_linear_151_2017" x1="318.532" y1="350.281" x2="380.169" y2="350.281" gradientUnits="userSpaceOnUse">
<stop/>
<stop offset="0.33"/>
<stop offset="0.52"/>
<stop offset="0.73"/>
<stop offset="1"/>
</linearGradient>
<linearGradient id="paint20_linear_151_2017" x1="301.75" y1="336.685" x2="361.524" y2="336.685" gradientUnits="userSpaceOnUse">
<stop/>
<stop offset="0.33"/>
<stop offset="0.52"/>
<stop offset="0.73"/>
<stop offset="1"/>
</linearGradient>
<linearGradient id="paint21_linear_151_2017" x1="279.782" y1="327.63" x2="337.693" y2="327.63" gradientUnits="userSpaceOnUse">
<stop/>
<stop offset="0.33"/>
<stop offset="0.52"/>
<stop offset="0.73"/>
<stop offset="1"/>
</linearGradient>
<linearGradient id="paint22_linear_151_2017" x1="257.598" y1="323.776" x2="313.646" y2="323.776" gradientUnits="userSpaceOnUse">
<stop/>
<stop offset="0.33"/>
<stop offset="0.52"/>
<stop offset="0.73"/>
<stop offset="1"/>
</linearGradient>
<linearGradient id="paint23_linear_151_2017" x1="235.758" y1="320.08" x2="289.957" y2="320.08" gradientUnits="userSpaceOnUse">
<stop/>
<stop offset="0.33"/>
<stop offset="0.52"/>
<stop offset="0.73"/>
<stop offset="1"/>
</linearGradient>
<linearGradient id="paint24_linear_151_2017" x1="216.626" y1="311.311" x2="268.948" y2="311.311" gradientUnits="userSpaceOnUse">
<stop/>
<stop offset="0.33"/>
<stop offset="0.52"/>
<stop offset="0.73"/>
<stop offset="1"/>
</linearGradient>
<linearGradient id="paint25_linear_151_2017" x1="203.856" y1="293.933" x2="254.315" y2="293.933" gradientUnits="userSpaceOnUse">
<stop/>
<stop offset="0.33"/>
<stop offset="0.52"/>
<stop offset="0.73"/>
<stop offset="1"/>
</linearGradient>
<linearGradient id="paint26_linear_151_2017" x1="200.274" y1="271.74" x2="248.87" y2="271.74" gradientUnits="userSpaceOnUse">
<stop/>
<stop offset="0.33"/>
<stop offset="0.52"/>
<stop offset="0.73"/>
<stop offset="1"/>
</linearGradient>
<linearGradient id="paint27_linear_151_2017" x1="204.073" y1="249.117" x2="250.806" y2="249.117" gradientUnits="userSpaceOnUse">
<stop/>
<stop offset="0.33"/>
<stop offset="0.52"/>
<stop offset="0.73"/>
<stop offset="1"/>
</linearGradient>
<linearGradient id="paint28_linear_151_2017" x1="212.111" y1="227.569" x2="256.981" y2="227.569" gradientUnits="userSpaceOnUse">
<stop/>
<stop offset="0.33"/>
<stop offset="0.52"/>
<stop offset="0.73"/>
<stop offset="1"/>
</linearGradient>
<linearGradient id="paint29_linear_151_2017" x1="221.125" y1="206.278" x2="264.132" y2="206.278" gradientUnits="userSpaceOnUse">
<stop/>
<stop offset="0.33"/>
<stop offset="0.52"/>
<stop offset="0.73"/>
<stop offset="1"/>
</linearGradient>
<linearGradient id="paint30_linear_151_2017" x1="228.405" y1="184.401" x2="269.548" y2="184.401" gradientUnits="userSpaceOnUse">
<stop/>
<stop offset="0.33"/>
<stop offset="0.52"/>
<stop offset="0.73"/>
<stop offset="1"/>
</linearGradient>
<linearGradient id="paint31_linear_151_2017" x1="232.962" y1="161.965" x2="272.243" y2="161.965" gradientUnits="userSpaceOnUse">
<stop/>
<stop offset="0.33"/>
<stop offset="0.52"/>
<stop offset="0.73"/>
<stop offset="1"/>
</linearGradient>
<linearGradient id="paint32_linear_151_2017" x1="234.224" y1="139.327" x2="271.642" y2="139.327" gradientUnits="userSpaceOnUse">
<stop/>
<stop offset="0.33"/>
<stop offset="0.52"/>
<stop offset="0.73"/>
<stop offset="1"/>
</linearGradient>
<linearGradient id="paint33_linear_151_2017" x1="231.586" y1="116.906" x2="267.141" y2="116.906" gradientUnits="userSpaceOnUse">
<stop/>
<stop offset="0.33"/>
<stop offset="0.52"/>
<stop offset="0.73"/>
<stop offset="1"/>
</linearGradient>
<linearGradient id="paint34_linear_151_2017" x1="224.578" y1="95.5439" x2="258.256" y2="95.5439" gradientUnits="userSpaceOnUse">
<stop/>
<stop offset="0.33"/>
<stop offset="0.52"/>
<stop offset="0.73"/>
<stop offset="1"/>
</linearGradient>
<linearGradient id="paint35_linear_151_2017" x1="213.272" y1="76.4886" x2="245.101" y2="76.4886" gradientUnits="userSpaceOnUse">
<stop/>
<stop offset="0.33"/>
<stop offset="0.52"/>
<stop offset="0.73"/>
<stop offset="1"/>
</linearGradient>
<linearGradient id="paint36_linear_151_2017" x1="197.808" y1="60.9724" x2="227.774" y2="60.9724" gradientUnits="userSpaceOnUse">
<stop/>
<stop offset="0.33"/>
<stop offset="0.52"/>
<stop offset="0.73"/>
<stop offset="1"/>
</linearGradient>
<clipPath id="clip0_151_2017">
<rect width="408" height="582" fill="white" transform="translate(0 46)"/>
</clipPath>
</defs>
</svg>
